<svg xmlns="http://www.w3.org/2000/svg" width="12" height="12" viewBox="0 0 12 12">
  <path fill="rgb(39,110,230)" fill-rule="evenodd" d="M11.80777558 1.17087466c.25629422.2562943.25629422.67245686 0 .92875616L7.90740575 6.00000188l3.90036983 3.90037105c.25629923.2562943.25629923.67246188 0 .92875617l-.97864987.97865018c-.25629421.2562943-.67245665.2562943-.92875588 0L6 7.90740822l-3.90037484 3.90037106c-.25629422.2562943-.67245665.2562943-.92875087 0l-.97864987-.97865018c-.25629923-.2562943-.25629923-.67246187 0-.92875617l3.90036983-3.90037105L.19222442 2.0996258c-.25629421-.25629429-.25629421-.67245686 0-.92875115l.97864987-.97865018c.25629422-.2562993.67245665-.2562993.92875588 0L6 4.09259553 9.90036983.19222448c.25629923-.2562993.67245665-.2562993.92875588 0l.97864987.97865018z"/>
</svg>
