<svg xmlns="http://www.w3.org/2000/svg" width="40" height="40" viewBox="0 0 40 40">
  <g>
    <path fill="rgb(255,255,255)" fill-rule="evenodd" d="M34.7557624 20.51834893c.00297165-.098917.00510025-.19804954.00638199-.2973938.1210823-9.38710022-7.390522-17.0985639-16.77758217-17.2195115C8.59750158 2.8803625.88607204 10.39200042.76512516 19.77910255c-.12108064 9.389534 7.3905248 17.09856415 16.78001636 17.21951294 3.99554825.05052567 7.68707657-1.28092575 10.61883354-3.55094146-.7177353-1.26495743-1.12766457-2.72703171-1.12766457-4.28409195 0-4.47016526 3.37867546-8.15743065 7.7194519-8.64523316zm-22.69237232-8.77586937c1.53365612.01899338 2.75874424 1.27967263 2.7397213 2.8157053-.01899243 1.53366184-1.2796669 2.75875569-2.81332303 2.7397318-1.53602504-.01899148-2.76111412-1.27967072-2.74209118-2.81333352.02136708-1.53603268 1.28203774-2.76349735 2.8156929-2.74210358zm11.61175441.1495123c1.53365517.01899337 2.75874329 1.27967262 2.74209214 2.81333541-.01899338 1.53366184-1.2796669 2.76112652-2.81332398 2.74210263-1.53365517-.01899338-2.76111412-1.27967263-2.74209022-2.81333447.02136612-1.53603268 1.28203582-2.76112652 2.81332206-2.74210358zm-5.93104171 18.62420558c4.83766555-.01575279 8.74262237-3.28215408 8.71947097-7.29465484l-17.52410507.05179405c.02315903 4.0148735 3.96489239 7.25848007 8.8046341 7.2428608z"/>
    <ellipse cx="35.736" cy="29.164" fill="rgb(0,255,56)" rx="3.5" ry="3.5"/>
  </g>
</svg>
