<svg xmlns="http://www.w3.org/2000/svg" width="60.078" height="20" viewBox="0 0 60.078 20">
  <path fill="rgb(28,231,131)" fill-rule="evenodd" d="M6.3838768 6.24067307h3.05994034c3.01994324 0 5.43267822 1.40726089 5.43267822 5.06398391V20h-4.77244568v-8.07054901c0-.713768-.57123184-1.29206848-1.27741241-1.29206848H6.04979706c-.70617676 0-1.27837372.57830047-1.27837372 1.29206848V20H0V0h4.7713623v6.53334045s.5382042-.29266738 1.6125145-.29266738zM41.5715332 20h-4.77244568V0h4.77244568v20zm-14.4583435-4.39774323c.70521545 0 1.27741241-.57823562 1.27741241-1.29206466V6.24067307h4.77238465v8.47198486c0 3.11575317-1.78751374 5.26203537-4.77244568 5.26203537v.02524566h-4.6714325c-3.2409401 0-5.43261719-1.82471847-5.43261719-5.28728103V6.24067307h4.77148438v8.06951904c0 .71382904.57117462 1.29206466 1.27939606 1.29206466h2.77581787zm28.19350433-9.3615837v8.06951904c0 .71382904-.57213592 1.29206466-1.27741241 1.29206466H51.2534027c-.7071991 0-1.27837372-.57823562-1.27837372-1.29206466V6.24067307h-4.77244568v8.47198486c0 3.46256256 2.19167328 5.28728103 5.43267823 5.28728103H55.306633v-.02524566c2.98493194 0 4.77142334-2.1462822 4.77142334-5.26203537V6.24067307h-4.7713623z"/>
</svg>
