<svg xmlns="http://www.w3.org/2000/svg" width="27.511" height="39" viewBox="0 0 27.511 39">
  <path fill="rgb(255,255,255)" fill-rule="evenodd" d="M9.25557137 4.5c0-2.48361754 2.01638221-4.5 4.5-4.5 2.48361778 0 4.5 2.01638246 4.5 4.5 0 .08996773-.0026455.17932272-.007864.26799059 5.15935135 1.78351355 9.26343345 6.4762206 9.26343345 11.98509169v11.44943809c0 1.54585075-1.25415039 2.7975769-2.80000114 2.7975769H2.80000305C1.25172615 31.00009727 0 29.74837112 0 28.20252037v-11.4494381C0 11.24462987 4.1050129 6.55209352 9.26346016 4.76831246 9.25822353 4.6795416 9.25557136 4.59007788 9.25557136 4.5zm4.5926075 34.5c-2.67362214 0-4.83951092-2.16588974-4.83951092-4.83951187h9.67902088C18.68768883 36.83411026 16.52179909 39 13.84817886 39z"/>
</svg>
