<svg xmlns="http://www.w3.org/2000/svg" width="90" height="30" viewBox="0 0 90 30">
  <path fill="#000" fill-rule="evenodd" d="M4 .00000858h82c2.20765686 0 4 1.79233992 4 4v22c0 2.20766068-1.79234314 4-4 4H4c-2.20766008 0-4-1.79233932-4-4v-22c0-2.20766008 1.79233992-4 4-4zm54.39858627 20.54265976h16.97128678c.05202484 0 .08732605.03554154.08732605.07108307v1.43961716c0 .07108688.05413818.10663223.10616302.10663223h3.05906677c.05413819 0 .10569-.03554535.10569-.10663223v-1.4040718c0-.05343247.05413819-.10662843.1061554-.10662843h3.04023743c.07085419 0 .10616302-.05343246.10616302-.10639572v-1.42196274c0-.05343246-.03530883-.10663223-.10616302-.10663223h-3.04023743c-.05201721 0-.1061554-.05343246-.1061554-.10662842V8.5464821c0-.83679486-.3109436-1.36970759-.8337326-1.54648209h-.88504791c-.2758789.07085085-.57575989.19772387-.8972931.390975L57.83295442 18.67652988c-.70709992.44417191-.95495987.94154358-.77795029 1.31486512.14123154.32012176.54680252.55127334 1.34358215.55127334zM9.5885048 9.15836048V7.42055941h18.03478813c2.27439118 0 4.1181488 1.84375715 4.1181488 4.11814928.00006867 2.27446079-1.84375762 4.11828708-4.1181488 4.11828708H15.1857853c-1.28076362 0-2.3190155 1.03818417-2.3190155 2.31894589v4.60351562h-3.278265v-4.55820465c0-2.26558971 1.83667565-4.10219574 4.10219765-4.10219574h12.39219475c1.31459427 0 2.38027954-1.06575584 2.38027954-2.3803482 0-1.31466198-1.06568527-2.3803482-2.38027954-2.3803482H9.58850479zm35.39032364-1.73780107c-2.26558685 0-4.10219574 1.8366065-4.10219574 4.10226583v6.99967861c-.00006866 1.28076172-1.03839111 2.31908417-2.31915283 2.3190155h-7.89635658v1.73793793h9.39143943c2.265728-.00006866 4.10233689-1.83667373 4.10233689-4.10233307v-6.99974823c0-1.28076362 1.03824997-2.3190155 2.3190155-2.3190155h8.04336166V7.42055941h-9.53844833zm30.23097992 2.47656393l-14.16007996 8.76175213c-.08967971.05319976-.12498855.10663223-.1059227.17771911.01647568.03577805.07085038.07108307.19348908.07108307h14.23257828c.0520172 0 .1061554-.05319595.1061554-.10662842v-8.76175308c0-.19536972-.17700196-.21325874-.2662201-.14217281z"/>
</svg>
